<svg width="64" height="64" viewBox="0 0 64 64" fill="none" xmlns="http://www.w3.org/2000/svg">
  <rect width="64" height="64" rx="14" fill="#F8FAFC"/>
  <path d="M12 28L32 16L52 28L48 46H16L12 28Z" fill="#1E3A8A"/>
  <path d="M16 30L32 20L48 30" fill="#2563EB"/>
  <path d="M16 30H48L44 46H20L16 30Z" fill="#3B82F6"/>
  <path d="M18 30L26 24L38 24L46 30" fill="#0EA5E9" opacity="0.85"/>
  <rect x="23" y="20" width="5" height="12" rx="1" fill="#22C55E"/>
  <rect x="30" y="18" width="5" height="14" rx="1" fill="#84CC16"/>
  <rect x="37" y="16" width="5" height="16" rx="1" fill="#A3E635"/>
  <path d="M22 14C30 10 36 10 44 14" stroke="#22C55E" stroke-width="3" stroke-linecap="round"/>
  <path d="M44 14L41 12" stroke="#22C55E" stroke-width="3" stroke-linecap="round"/>
  <path d="M44 14L41 16" stroke="#22C55E" stroke-width="3" stroke-linecap="round"/>
</svg>
